<?xml version="1.0" encoding="UTF-8"?><svg id="Layer_2" xmlns="http://www.w3.org/2000/svg" viewBox="0 0 856.75 73.7"><defs><style>.cls-1{fill:#fd5d23;}.cls-1,.cls-2{stroke-width:0px;}</style></defs><g id="Layer_2-2"><polygon class="cls-2" points="833.91 66.27 833.91 .76 826.76 .76 826.76 72.93 831.83 72.93 833.91 72.93 856.75 72.93 856.75 66.27 833.91 66.27"/><polygon class="cls-2" points="764.94 7.42 764.94 .76 741.12 .76 738.88 .76 733.97 .76 733.97 72.93 738.88 72.93 741.12 72.93 764.94 72.93 764.94 66.27 741.12 66.27 741.12 40.42 762.47 40.42 762.47 33.76 741.12 33.76 741.12 7.42 764.94 7.42"/><polygon class="cls-2" points="634.82 .76 642.38 .76 654.24 64.8 666.1 .76 673.64 .76 659.05 72.93 649.43 72.93 634.82 .76"/><path class="cls-2" d="m575,72.93h7.93L566.26.75h-8.64l-16.67,72.18h7.94l3.56-17.52h18.98s3.57,17.52,3.57,17.52Zm-21.2-24.18l8.13-40,8.14,40h-16.27Z"/><path class="cls-2" d="m483.85,72.93l-10.63-32.36c.12-.05.24-.09.36-.15,2.68-1.32,4.73-3.25,6.13-5.78,1.41-2.54,2.1-5.57,2.1-9.11v-8.44c0-3.44-.69-6.39-2.1-8.86-1.4-2.46-3.46-4.34-6.13-5.61-2.68-1.27-5.91-1.92-9.67-1.92h-17.28v72.23h7.15v-30.53h10.13c.93,0,1.83-.04,2.7-.12l8.95,30.65h8.29Zm-30.07-37.17V7.36h10.62c2.15,0,4,.42,5.52,1.27,1.54.83,2.73,2.07,3.52,3.66.82,1.61,1.22,3.54,1.22,5.79v7.44c0,2.15-.41,4-1.22,5.54-.79,1.54-1.98,2.69-3.52,3.49-1.53.8-3.37,1.2-5.52,1.2h-10.62Z"/><polygon class="cls-2" points="385.3 .76 350.26 .76 350.26 7.42 364.2 7.42 364.2 72.93 371.35 72.93 371.35 7.42 385.3 7.42 385.3 .76"/><path class="cls-1" d="m263.94,73.68c-3.46,0-6.81-.36-10.11-1.05-3.29-.69-6.39-1.71-9.27-3.05-2.9-1.34-5.49-2.95-7.78-4.83l6.3-11.23c2.78,2.29,6,4.05,9.64,5.3,3.62,1.24,7.37,1.85,11.21,1.85,4.42,0,7.86-.75,10.32-2.25,2.46-1.51,3.68-3.62,3.68-6.37v-.05c0-1.93-.54-3.44-1.65-4.57-1.08-1.12-2.51-1.95-4.27-2.48-1.74-.54-4-1.02-6.74-1.44-.1-.04-.2-.05-.27-.05-.09,0-.19-.02-.29-.05l-1.08-.15c-4.83-.76-8.83-1.71-12.01-2.85-3.17-1.15-5.88-3.15-8.08-6.02-2.22-2.86-3.34-6.93-3.34-12.18v-.05c0-4.66,1.05-8.66,3.13-11.96,2.08-3.3,5.12-5.83,9.08-7.57,3.96-1.73,8.78-2.61,14.4-2.61,2.57,0,5.22.31,7.91.9,2.7.59,5.34,1.46,7.91,2.57,2.58,1.13,5.03,2.49,7.36,4.08l-5.76,11.51c-2.78-1.92-5.69-3.4-8.71-4.45-3.03-1.07-5.93-1.59-8.71-1.59-4.18,0-7.41.68-9.69,2.05-2.29,1.39-3.42,3.3-3.42,5.79v.05c0,2.08.59,3.73,1.79,4.93,1.19,1.2,2.66,2.1,4.41,2.66,1.76.56,4.22,1.15,7.4,1.78.14.04.26.07.39.09.14.02.27.03.41.07.19.03.39.08.56.14.19.03.37.08.57.12,4.58.9,8.39,1.98,11.44,3.25,3.07,1.27,5.62,3.32,7.67,6.15,2.05,2.83,3.09,6.69,3.09,11.59v.1c0,4.59-1.09,8.54-3.24,11.81-2.15,3.28-5.29,5.77-9.4,7.51-4.12,1.71-9.08,2.57-14.86,2.57v-.02Z"/><path class="cls-1" d="m174.46,32.58v14.09c0,5.37-1.09,10.08-3.26,14.18-2.17,4.08-5.23,7.24-9.2,9.47-3.98,2.24-8.57,3.35-13.81,3.35s-9.89-1.05-13.93-3.15c-4.02-2.1-7.12-5.07-9.32-8.91-2.2-3.85-3.3-8.29-3.3-13.35v-21.3c0-5.35,1.08-10.08,3.25-14.15,2.17-4.06,5.24-7.22,9.2-9.45,3.98-2.24,8.57-3.36,13.81-3.36,4.3,0,8.27.9,11.91,2.66,3.64,1.78,6.67,4.27,9.1,7.52,2.44,3.24,4.08,7,4.95,11.27h-14.69c-.51-1.53-1.32-2.85-2.46-3.95-1.15-1.1-2.49-1.95-4.03-2.53-1.52-.59-3.13-.88-4.78-.88-2.42,0-4.54.54-6.39,1.59-1.83,1.07-3.25,2.56-4.27,4.52-1,1.95-1.51,4.2-1.51,6.74v21.3c0,2.25.51,4.24,1.54,5.96,1.02,1.71,2.47,3.03,4.37,3.96,1.88.93,4.06,1.39,6.54,1.39s4.59-.51,6.44-1.51c1.83-1.01,3.25-2.47,4.23-4.4,1-1.91,1.49-4.18,1.49-6.8v-1.19h-10.93v-13.11h25.02l.03.04Z"/><path class="cls-1" d="m49.18,72.93h14.64L36.22.75h-8.62L0,72.93h14.64l4.05-11.57h26.43l4.06,11.57Zm-25.9-24.67l8.62-24.62,8.63,24.62h-17.25Z"/></g></svg>